<?xml version="1.0" standalone="no"?>
<!DOCTYPE svg PUBLIC "-//W3C//DTD SVG 20010904//EN"
 "http://www.w3.org/TR/2001/REC-SVG-20010904/DTD/svg10.dtd">
<svg version="1.0" xmlns="http://www.w3.org/2000/svg"
 width="768.000000pt" height="768.000000pt" viewBox="0 0 768.000000 768.000000"
 preserveAspectRatio="xMidYMid meet">
<metadata>
Created by potrace 1.11, written by Peter Selinger 2001-2013
</metadata>
<g transform="translate(0.000000,768.000000) scale(0.100000,-0.100000)"
fill="#000000" stroke="none">
<path d="M905 7015 c-252 -55 -462 -245 -552 -500 l-28 -80 0 -1630 0 -1630
27 -80 c40 -118 92 -200 188 -295 95 -96 177 -148 295 -188 l80 -27 528 -3
c290 -1 527 -6 527 -10 0 -4 -31 -128 -68 -277 l-68 -270 -475 -5 -474 -5 -46
-27 c-96 -56 -141 -134 -143 -243 -1 -115 59 -210 163 -259 l46 -21 3025 0
3025 0 55 26 c82 39 144 99 182 177 l33 66 3 207 c3 206 3 207 -21 235 -21 24
-33 28 -91 32 l-66 4 0 1259 c0 893 -3 1273 -11 1311 -25 117 -103 218 -207
266 l-57 27 -422 3 -423 3 0 612 c0 337 -5 645 -10 684 -40 309 -259 555 -564
633 -78 20 -102 20 -2235 19 -1737 0 -2168 -3 -2216 -14z m4409 -190 c153 -40
292 -151 359 -286 63 -127 62 -120 62 -819 l0 -635 -137 -3 -138 -3 0 553 c0
332 -4 578 -10 617 -18 110 -77 201 -168 260 -102 65 37 61 -2162 61 -2199 0
-2060 4 -2162 -61 -96 -62 -153 -154 -168 -275 -6 -45 -10 -588 -10 -1327 0
-1354 -2 -1306 53 -1400 35 -59 108 -124 175 -155 l57 -27 933 -3 932 -2 0
-275 0 -275 -978 0 c-1084 0 -1019 -4 -1154 67 -83 43 -184 146 -227 231 -64
127 -61 34 -61 1734 0 1084 3 1563 11 1600 32 157 155 312 301 382 42 20 96
41 120 45 24 5 1004 9 2178 10 1886 1 2143 -1 2194 -14z m-158 -464 c23 -10
54 -36 70 -57 l29 -37 3 -594 2 -593 -1027 -2 -1028 -3 -57 -28 c-108 -53
-182 -148 -207 -265 -7 -36 -11 -249 -11 -662 l0 -610 -904 0 c-617 0 -914 3
-933 11 -38 14 -71 46 -94 91 -19 37 -19 74 -17 1346 l3 1309 29 37 c16 21 47
47 70 57 40 18 109 19 2036 19 1927 0 1996 -1 2036 -19z m1604 -1491 c45 -23
73 -60 89 -115 8 -28 11 -407 11 -1292 l0 -1252 -535 -3 -535 -3 -93 -93 -94
-93 -614 7 -614 6 -80 78 c-44 43 -90 83 -102 89 -15 8 -180 11 -541 11 l-519
0 -7 1243 c-6 903 -5 1255 4 1291 14 62 41 101 88 126 36 19 75 19 1770 20
1707 0 1733 0 1772 -20z m-4037 -2300 l207 0 0 -180 0 -180 -60 0 c-52 0 -64
-4 -92 -29 -27 -24 -32 -36 -36 -88 l-4 -60 -247 -6 c-135 -4 -295 -7 -354 -7
-99 0 -108 2 -103 18 3 9 30 118 61 242 31 124 61 243 66 264 l11 39 171 -6
c95 -4 265 -7 380 -7z m1462 -631 c44 -44 92 -87 107 -95 23 -12 136 -14 701
-14 l674 0 39 29 c21 16 68 59 104 95 l64 66 583 0 583 0 0 -102 c0 -57 -5
-119 -10 -140 -13 -45 -76 -103 -128 -118 -28 -7 -620 -9 -1939 -8 l-1899 3
-42 28 c-67 44 -82 85 -82 222 l0 115 583 0 582 0 80 -81z m-1435 -137 c0 -26
17 -91 35 -134 7 -17 -40 -18 -909 -18 -1003 0 -960 -3 -985 58 -16 37 -5 77
26 102 25 20 43 20 929 20 l904 0 0 -28z"/>
<path d="M3338 4685 l-25 -25 -7 -983 c-6 -721 -5 -995 4 -1026 8 -30 20 -48
43 -61 31 -19 54 -20 523 -20 270 0 999 3 1619 7 l1129 6 23 23 23 23 0 1014
0 1014 -26 27 -27 26 -1627 0 -1627 0 -25 -25z m3142 -1040 l0 -875 -1490 0
-1490 0 0 875 0 875 1490 0 1490 0 0 -875z"/>
</g>
</svg>
