
<svg width="44" height="48" viewBox="0 0 44 48" xmlns="http://www.w3.org/2000/svg">
<rect opacity="0.4" y="10.3875" width="13" height="15.4561" fill="#53BC35"/>
<rect opacity="0.4" x="13" y="25.8436" width="17" height="10.7004" fill="#53BC35"/>
<rect opacity="0.4" x="30" y="36.5439" width="13" height="15.4561" fill="#53BC35"/>
<path d="M42.6162 34.211H42.0324V18.5551C42.0324 17.2742 40.9869 16.2358 39.6973 16.2358H35.027V8.69774C35.0241 6.13699 32.9349 4.06186 30.3568 4.05896H4.67027C2.09213 4.06186 0.00291892 6.13699 0 8.69774V27.2529C0.00291892 29.8136 2.09213 31.8887 4.67027 31.8916H10.3441L9.46839 35.3707H4.08649C3.11923 35.3707 2.33513 36.1495 2.33513 37.1103C2.33513 38.071 3.11923 38.8498 4.08649 38.8498H40.8649C42.1545 38.8498 43.2 37.8114 43.2 36.5304V34.7909C43.2 34.4706 42.9386 34.211 42.6162 34.211ZM39.6973 17.3954C40.3422 17.3954 40.8649 17.9146 40.8649 18.5551V34.211H34.4432C34.2884 34.211 34.14 34.2722 34.0305 34.3809L33.034 35.3707H25.3444L24.3479 34.3809C24.2384 34.2722 24.09 34.211 23.9351 34.211H17.5135V18.5551C17.5135 17.9146 18.0362 17.3954 18.6811 17.3954H39.6973ZM16.3459 18.5551V26.0932H5.25405C4.60919 26.0932 4.08649 25.574 4.08649 24.9335V9.27759C4.08649 8.63707 4.60919 8.11789 5.25405 8.11789H29.7479C30.3927 8.11789 30.9154 8.63707 30.9154 9.27759V16.2358H18.6811C17.3914 16.2358 16.3459 17.2742 16.3459 18.5551ZM4.67027 30.7319C2.73656 30.7301 1.16946 29.1735 1.16757 27.2529V8.69774C1.16946 6.77707 2.73656 5.22054 4.67027 5.21865H30.3568C32.2905 5.22054 33.8576 6.77707 33.8595 8.69774V16.2358H32.083V9.27759C32.083 7.99663 31.0375 6.9582 29.7479 6.9582H5.25405C3.9644 6.9582 2.91892 7.99663 2.91892 9.27759V24.9335C2.91892 26.2144 3.9644 27.2529 5.25405 27.2529H16.3459V30.7319H4.67027ZM4.08649 37.6901C3.76409 37.6901 3.5027 37.4305 3.5027 37.1103C3.5027 36.79 3.76409 36.5304 4.08649 36.5304H15.1784C15.1808 36.9388 15.2929 37.3391 15.503 37.6901H4.08649ZM15.1784 34.7909V35.3707H10.6722L11.5478 31.8916H16.3459V34.211H15.7622C15.4398 34.211 15.1784 34.4706 15.1784 34.7909ZM42.0324 36.5304C42.0324 37.1709 41.5097 37.6901 40.8649 37.6901H17.5135C16.8687 37.6901 16.3459 37.1709 16.3459 36.5304V35.3707H23.6934L24.69 36.3605C24.7994 36.4692 24.9479 36.5304 25.1027 36.5304H33.2757C33.4305 36.5304 33.5789 36.4692 33.6884 36.3605L34.6849 35.3707H42.0324V36.5304Z" fill="#353535"/>
<path d="M39.1136 18.5551H19.2649C18.9425 18.5551 18.6812 18.8147 18.6812 19.135V31.3118C18.6812 31.632 18.9425 31.8916 19.2649 31.8916H39.1136C39.436 31.8916 39.6974 31.632 39.6974 31.3118V19.135C39.6974 18.8147 39.436 18.5551 39.1136 18.5551ZM38.5298 30.7319H19.8487V19.7148H38.5298V30.7319Z" fill="#353535"/>
</svg>
